<svg xmlns="http://www.w3.org/2000/svg" width="30" height="30" viewBox="0 0 256 256"><path fill="#fff" stroke-miterlimit="10" d="M32 10c-12.15 0-22 9.85-22 22s9.85 22 22 22 22-9.85 22-22-9.85-22-22-22zm0 4c9.941 0 18 8.059 18 18s-8.059 18-18 18-18-8.059-18-18 8.059-18 18-18zm-6.363 9.637a2 2 0 0 0-1.414 3.414L29.172 32l-4.95 4.95a2 2 0 1 0 2.829 2.827L32 34.828l4.95 4.95a2 2 0 1 0 2.827-2.829L34.828 32l4.95-4.95a2 2 0 1 0-2.829-2.827L32 29.172l-4.95-4.95a1.994 1.994 0 0 0-1.413-.585z" font-family="none" font-size="none" font-weight="none" style="mix-blend-mode:normal" text-anchor="none" transform="scale(4)"/></svg>